<?xml version="1.0" encoding="UTF-8" standalone="no"?>
<!-- Created with Inkscape (http://www.inkscape.org/) -->

<svg
   xmlns:dc="http://purl.org/dc/elements/1.1/"
   xmlns:cc="http://creativecommons.org/ns#"
   xmlns:rdf="http://www.w3.org/1999/02/22-rdf-syntax-ns#"
   xmlns:svg="http://www.w3.org/2000/svg"
   xmlns="http://www.w3.org/2000/svg"
   xmlns:sodipodi="http://sodipodi.sourceforge.net/DTD/sodipodi-0.dtd"
   xmlns:inkscape="http://www.inkscape.org/namespaces/inkscape"
   width="1920"
   height="1080"
   viewBox="0 0 507.99999 285.75001"
   version="1.1"
   id="svg26904"
   inkscape:version="0.92.4 (unknown)"
   sodipodi:docname="icons.svg">
  <defs
     id="defs26898" />
  <sodipodi:namedview
     id="base"
     pagecolor="#ffffff"
     bordercolor="#666666"
     borderopacity="1.0"
     inkscape:pageopacity="0.0"
     inkscape:pageshadow="2"
     inkscape:zoom="0.175"
     inkscape:cx="1567.1429"
     inkscape:cy="434.28571"
     inkscape:document-units="mm"
     inkscape:current-layer="layer1"
     showgrid="false"
     units="px"
     inkscape:window-width="1366"
     inkscape:window-height="718"
     inkscape:window-x="0"
     inkscape:window-y="0"
     inkscape:window-maximized="1" />
  <metadata
     id="metadata26901">
    <rdf:RDF>
      <cc:Work
         rdf:about="">
        <dc:format>image/svg+xml</dc:format>
        <dc:type
           rdf:resource="http://purl.org/dc/dcmitype/StillImage" />
        <dc:title></dc:title>
      </cc:Work>
    </rdf:RDF>
  </metadata>
  <g
     inkscape:label="Layer 1"
     inkscape:groupmode="layer"
     id="layer1"
     transform="translate(0,-11.249983)">
    <rect
       style="opacity:1;fill:#483737;fill-opacity:1;stroke:#000000;stroke-width:1.5;stroke-linecap:butt;stroke-linejoin:miter;stroke-miterlimit:4;stroke-dasharray:none;stroke-dashoffset:91.59804535;stroke-opacity:1;paint-order:stroke fill markers"
       id="rect27633"
       width="495.90475"
       height="278.19049"
       x="9.0714283"
       y="17.297602" />
    <path
       inkscape:connector-curvature="0"
       id="path6304"
       style="fill:#ffffff;stroke-width:0.46072829;paint-order:stroke fill markers"
       d="m 91.243625,42.589386 c -0.033,0 -0.068,0.01 -0.1028,0.01 -1.43917,0.099 -1.89827,1.712169 -2.04336,2.909549 0.19789,1.889067 -2.40966,2.513256 -3.47294,1.19108 -0.94249,-1.224978 -3.48934,-1.380477 -3.77764,0.463492 -0.29939,1.67957 1.70357,2.644952 1.68417,4.221125 -0.41799,1.676472 -2.44515,1.471674 -3.70753,2.052664 -1.47767,0.465392 -1.50237,2.762552 -0.01,3.234643 1.03348,0.624091 2.49625,0.172296 3.32454,1.133581 1.05918,1.489273 -0.58489,2.79265 -1.14178,4.07933 -0.76219,1.381873 0.83748,2.861048 2.21446,2.395656 1.29038,-0.428292 2.41736,-2.202262 3.92673,-1.419376 1.43608,1.107483 0.62409,3.50814 2.28846,4.444222 1.58397,0.813388 2.943051,-1.225076 2.737853,-2.658652 0.1245,-1.11588 1.201381,-2.481757 2.417959,-1.839868 1.315278,0.604589 2.973149,2.332959 4.373623,0.982584 1.20778,-1.489176 -0.386694,-3.012049 -0.968483,-4.346824 -0.814086,-1.899867 1.363073,-2.353559 2.730353,-2.469356 1.48417,-0.199697 2.63915,-2.331659 1.16218,-3.312645 -1.16488,-0.839184 -2.974448,-0.351493 -3.897934,-1.623171 -0.743085,-1.07248 0.303896,-2.18536 0.901486,-3.043346 0.840978,-0.926684 0.761788,-2.761951 -0.625189,-3.118545 -1.548173,-0.559491 -2.433458,1.109479 -3.803534,1.376775 -1.721469,0.61659 -2.411857,-1.258578 -2.456156,-2.605852 -0.184597,-0.871887 -0.711488,-2.084666 -1.755768,-2.053966 z m -0.1008,9.363834 a 3.0836542,3.0837002 0 0 1 3.083746,3.083947 3.0836542,3.0837002 0 0 1 -3.083746,3.083745 3.0836542,3.0837002 0 0 1 -3.08354,-3.083745 3.0836542,3.0837002 0 0 1 3.08354,-3.083947 z" />
    <g
       style="fill:#ffffff"
       id="g6312"
       transform="matrix(0.46072827,0,0,0.46072827,-823.4862,-102.8164)">
      <rect
         id="rect6306"
         style="paint-order:fill markers stroke"
         ry="8.9455194"
         rx="10.57833"
         height="40.577"
         width="14.557"
         y="327.64999"
         x="2106.3999" />
      <rect
         id="rect6308"
         style="paint-order:fill markers stroke"
         ry="8.9455194"
         rx="10.57833"
         height="30.705"
         width="14.744"
         y="337.60001"
         x="2076.1001" />
      <rect
         id="rect6310"
         style="paint-order:fill markers stroke"
         ry="8.9455194"
         rx="10.57833"
         height="52.719002"
         width="14.358"
         y="315.42999"
         x="2091.3999" />
    </g>
    <path
       d="m 208.12207,55.42186 c 0,4.538221 -15.21433,13.558761 -19.04166,11.289602 -3.82734,-2.26926 -3.82734,-20.309943 0,-22.579203 3.82733,-2.269162 19.04166,6.751481 19.04166,11.289601 z"
       style="fill:#ffffff;stroke-width:0.38159451;paint-order:fill markers stroke"
       id="path6314"
       inkscape:connector-curvature="0" />
    <path
       d="m 245.08072,45.077242 c -0.20709,0.01 -0.37629,0.043 -0.50119,0.116298 -0.65279,0.376893 -1.09088,2.274159 -1.31718,4.693917 h -5.6053 c -1.31237,0 -2.36896,1.056682 -2.36896,2.369158 v 3.551537 c 0,1.312479 1.05659,2.369158 2.36896,2.369158 h 5.6053 c 0.2263,2.419559 0.66439,4.316725 1.31718,4.69392 1.99837,1.15378 15.30903,-6.530887 15.30903,-8.838647 0,-2.16336 -11.69879,-9.052941 -14.80784,-8.95474 z"
       style="fill:#ffffff;stroke-width:0.46072829;paint-order:fill markers stroke"
       id="path6316"
       inkscape:connector-curvature="0" />
    <path
       d="m 302.44141,44.524451 c 0.21979,0.01 0.399,0.045 0.53139,0.123298 0.69221,0.399492 1.1565,2.410857 1.3964,4.975812 h 5.94209 c 1.39136,0 2.51155,1.12018 2.51155,2.511558 v 3.765132 c 0,1.391576 -1.12019,2.511755 -2.51155,2.511755 h -5.94209 c -0.2399,2.565157 -0.70419,4.576422 -1.3964,4.975815 -2.11846,1.223278 -16.23011,-6.923878 -16.23011,-9.370136 0,-2.293559 12.40289,-9.597533 15.69894,-9.493835 z"
       style="fill:#ffffff;stroke-width:0.46072829;paint-order:fill markers stroke"
       id="path6318"
       inkscape:connector-curvature="0" />
    <path
       d="m 342.84731,51.481328 c 0.0101,-0.211095 0.045,-0.383392 0.11859,-0.510691 0.38399,-0.665088 2.31727,-1.11148 4.78282,-1.342175 v -5.711201 c 0,-1.337376 1.07659,-2.414156 2.41416,-2.414156 h 3.61884 c 1.33747,0 2.41406,1.07678 2.41406,2.414156 v 5.711201 c 2.46565,0.230695 4.39883,0.677087 4.78282,1.342175 1.17578,2.036466 -6.6552,15.599828 -9.00634,15.599828 -2.20427,0 -9.22464,-11.920992 -9.12516,-15.088936 z"
       style="fill:#ffffff;stroke-width:0.46072829;paint-order:fill markers stroke"
       id="path6320"
       inkscape:connector-curvature="0" />
    <path
       d="m 412.97028,56.503241 c -0.0101,0.206897 -0.044,0.375394 -0.11599,0.499891 -0.37589,0.650788 -2.26748,1.087781 -4.68022,1.313278 v 5.5886 c 0,1.308677 -1.05349,2.362259 -2.36206,2.362259 h -3.54124 c -1.30868,0 -2.36225,-1.053582 -2.36225,-2.362259 v -5.5886 c -2.41266,-0.225497 -4.30424,-0.66249 -4.68014,-1.313278 -1.15038,-1.992564 6.51209,-15.264331 8.81296,-15.264331 2.15696,0 9.02644,11.664693 8.92894,14.76494 z"
       style="fill:#ffffff;stroke-width:0.46072829;paint-order:fill markers stroke"
       id="path6322"
       inkscape:connector-curvature="0" />
    <path
       d="m 143.21371,93.776288 a 12.351202,12.351202 0 0 0 -12.35168,12.351682 12.351202,12.351202 0 0 0 12.35168,12.35119 12.351202,12.351202 0 0 0 12.35128,-12.35119 12.351202,12.351202 0 0 0 -12.35128,-12.351682 z m 0,4.725617 a 7.6259748,7.6259748 0 0 1 7.62546,7.626065 7.6259748,7.6259748 0 0 1 -7.62546,7.62547 7.6259748,7.6259748 0 0 1 -7.62547,-7.62547 7.6259748,7.6259748 0 0 1 7.62547,-7.626065 z"
       style="fill:#ffffff;stroke-width:0.46072829;paint-order:fill markers stroke"
       id="path6324"
       inkscape:connector-curvature="0" />
    <path
       d="m 194.17031,94.78987 c -2.72805,0.028 -8.05445,1.280477 -8.38625,2.254559 -0.1554,0.456491 0.52189,1.631572 1.50448,2.924649 a 10.929396,10.929396 0 0 0 -2.82575,7.311772 10.929396,10.929396 0 0 0 10.9295,10.92921 10.929396,10.929396 0 0 0 10.92921,-10.92921 10.929396,10.929396 0 0 0 -4.58892,-8.885644 c -0.55309,1.190578 -1.25397,2.491654 -1.99786,3.720934 a 6.7478259,6.7478259 0 0 1 2.40546,5.16471 6.7478259,6.7478259 0 0 1 -6.74789,6.74788 6.7478259,6.7478259 0 0 1 -6.74788,-6.74788 6.7478259,6.7478259 0 0 1 1.45428,-4.16333 c 1.00708,0.95469 1.90846,1.60527 2.33076,1.52168 1.29217,-0.2554 4.12192,-8.560855 3.25444,-9.552137 -0.1897,-0.216996 -0.74989,-0.304993 -1.51358,-0.297193 z"
       style="fill:#ffffff;stroke-width:0.46072829;paint-order:fill markers stroke"
       id="path6326"
       inkscape:connector-curvature="0" />
    <g
       style="fill:#ffffff"
       id="g6332"
       transform="matrix(0.45088709,0,0,0.45088709,-703.83499,-86.829214)">
      <path
         inkscape:connector-curvature="0"
         id="path6328"
         style="paint-order:fill markers stroke"
         d="m 2335.6,406.74 c -0.448,0.0141 -0.8132,0.0953 -1.0831,0.25115 -4.3192,2.4937 -4.3192,35.713 0,38.206 2.5175,1.4535 13.337,-3.584 21.929,-9.0263 h 11.916 v -20.154 h -11.916 c -7.6707,-4.8588 -17.116,-9.395 -20.846,-9.2775 z" />
      <path
         inkscape:connector-curvature="0"
         id="path6330"
         style="paint-order:fill markers stroke"
         d="m 2327.5,410.16 a 16.805,16.805 0 0 0 -11.562,15.954 16.805,16.805 0 0 0 11.562,15.944 v -5.8327 a 11.4,11.4 0 0 1 -6.1567,-10.112 11.4,11.4 0 0 1 6.1567,-10.119 z" />
    </g>
    <g
       id="g6338"
       transform="matrix(0.4115271,0,0,0.4115271,-525.76353,-70.749694)">
      <path
         inkscape:connector-curvature="0"
         id="path6334"
         style="fill:#ffffff;paint-order:fill markers stroke"
         d="m 2257.1,407.56 c -0.448,0.0141 -0.8132,0.0953 -1.0831,0.25115 -4.3192,2.4937 -4.3192,35.713 0,38.206 2.5175,1.4535 13.337,-3.584 21.929,-9.0263 h 11.916 v -20.154 h -11.916 c -7.6707,-4.8588 -17.116,-9.395 -20.846,-9.2775 z" />
      <path
         inkscape:connector-curvature="0"
         id="path6336"
         style="fill:#d40000;paint-order:fill markers stroke"
         d="m 2227.7,417.2 c -1.9699,1.9699 -1.9703,5.1416 -4e-4,7.1115 l 3.5559,3.556 -3.5555,3.5555 c -1.9699,1.9699 -1.9703,5.1416 -5e-4,7.1114 1.9699,1.9699 5.1421,1.9699 7.112,3e-5 l 3.5555,-3.5555 3.5555,3.5555 c 1.97,1.9699 5.1422,1.9699 7.1119,3e-5 1.97,-1.9699 1.9695,-5.1416 -5e-4,-7.1115 l -3.5555,-3.5555 3.556,-3.556 c 1.97,-1.9699 1.9695,-5.1416 -5e-4,-7.1115 -1.9698,-1.9699 -5.1411,-1.9699 -7.1108,0 l -3.5561,3.556 -3.556,-3.556 c -1.9699,-1.9699 -5.1411,-1.9699 -7.111,-3e-5 z" />
    </g>
    <path
       inkscape:connector-curvature="0"
       id="path6340"
       style="fill:#ffffff;stroke-width:0.46072829;paint-order:fill markers stroke"
       d="m 143.07561,145.51608 c -2.26516,0 -4.08893,1.82327 -4.08893,4.08833 v 4.08893 h -4.08853 c -2.26506,0 -4.08902,1.82327 -4.08902,4.08853 0,2.26496 1.82396,4.08872 4.08902,4.08872 h 4.08853 v 4.08843 c 0,2.26516 1.82377,4.08903 4.08893,4.08903 2.26496,0 4.08823,-1.82387 4.08823,-4.08903 v -4.08843 h 4.08893 c 2.26516,0 4.08843,-1.82376 4.08843,-4.08872 0,-2.26526 -1.82327,-4.08853 -4.08843,-4.08853 h -4.08893 v -4.08893 c 0,-2.26506 -1.82327,-4.08833 -4.08823,-4.08833 z" />
    <path
       inkscape:connector-curvature="0"
       id="path6342"
       style="fill:#d40000;stroke-width:0.46072829;paint-order:fill markers stroke"
       d="m 100.68866,149.06362 c -1.809669,-1.80957 -4.723517,-1.80997 -6.532786,0 l -3.266539,3.26654 -3.26625,-3.26604 c -1.80947,-1.80957 -4.72341,-1.81007 -6.53268,0 -1.80947,1.80957 -1.80947,4.72392 10e-5,6.53308 l 3.26624,3.26615 -3.26624,3.26624 c -1.80957,1.80957 -1.80957,4.72382 0,6.53309 1.80957,1.80956 4.72341,1.80916 6.53268,0 l 3.26615,-3.26615 3.266637,3.26655 c 1.809671,1.80966 4.723318,1.80916 6.532688,-2.7e-4 1.80967,-1.80957 1.80967,-4.72302 0,-6.53229 l -3.266645,-3.26664 3.266645,-3.26664 c 1.80957,-1.80957 1.80967,-4.72302 1e-4,-6.53209 z" />
    <g
       style="fill:#ffffff"
       id="g6348"
       transform="matrix(0.37097838,0,0,0.37097838,-567.3674,-130.5524)">
      <path
         inkscape:connector-curvature="0"
         id="path6344"
         style="paint-order:fill markers stroke"
         d="m 2225,631.25 c -0.07,-6.6915 -3.1409,-19.757 -5.5305,-20.571 -1.1198,-0.38151 -4.0021,1.2797 -7.1737,3.6902 -4.9156,-4.4484 -11.305,-6.9176 -17.935,-6.9308 -13.677,0.0161 -25.149,10.326 -26.621,23.924 h 10.338 c 1.3982,-7.8997 8.2602,-13.659 16.283,-13.667 3.7076,0.0119 7.3038,1.2682 10.212,3.5677 -2.3417,2.47 -3.9374,4.681 -3.7326,5.7165 0.6268,3.1699 20.999,10.111 23.431,7.983 0.5319,-0.4654 0.7482,-1.8388 0.7287,-3.7124 z" />
      <path
         inkscape:connector-curvature="0"
         id="path6346"
         style="paint-order:fill markers stroke"
         d="m 2167.8,642.63 c 0.07,6.6915 3.1409,19.757 5.5305,20.571 1.1198,0.38151 4.0021,-1.2797 7.1737,-3.6902 4.9156,4.4484 11.305,6.9176 17.935,6.9308 13.677,-0.0161 25.149,-10.326 26.621,-23.924 h -10.338 c -1.3982,7.8997 -8.2602,13.659 -16.283,13.667 -3.7076,-0.0119 -7.3038,-1.2682 -10.212,-3.5677 2.3417,-2.47 3.9374,-4.681 3.7326,-5.7165 -0.6268,-3.1699 -20.999,-10.111 -23.431,-7.983 -0.5319,0.4654 -0.7482,1.8388 -0.7287,3.7124 z" />
    </g>
    <g
       style="fill:#ffffff"
       id="g6354"
       transform="matrix(0.38710849,0,0,0.38710849,-581.78825,-138.20019)">
      <path
         inkscape:connector-curvature="0"
         id="path6350"
         style="paint-order:fill markers stroke"
         d="m 8565.1,2310.2 a 101.32,101.32 0 0 0 -60.443,92.639 101.32,101.32 0 0 0 101.32,101.32 101.32,101.32 0 0 0 101.32,-101.32 101.32,101.32 0 0 0 -60.445,-92.574 v 45.268 a 62.557,62.557 0 0 1 21.678,47.307 62.557,62.557 0 0 1 -62.555,62.557 62.557,62.557 0 0 1 -62.557,-62.557 62.557,62.557 0 0 1 21.676,-47.25 z"
         transform="scale(0.26458)" />
      <rect
         id="rect6352"
         style="paint-order:markers fill stroke"
         ry="10.214135"
         rx="11.060811"
         height="33.764"
         width="12.278"
         y="598.09998"
         x="2270.8999" />
    </g>
    <path
       inkscape:connector-curvature="0"
       id="path6356"
       style="fill:#ffffff;stroke-width:0.46072829;paint-order:fill markers stroke"
       d="m 359.15702,147.26675 c -0.1587,-0.01 -0.3207,0.01 -0.4835,0.039 l -11.85738,2.10716 c -1.14858,0.2041 -1.95797,1.16928 -1.97876,2.26666 -0.062,0.2142 -0.095,0.4408 -0.095,0.67579 v 8.55635 a 4.4237746,4.4237746 0 0 0 -4.24852,4.41732 4.4237746,4.4237746 0 0 0 4.42362,4.42383 4.4237746,4.4237746 0 0 0 4.42402,-4.42383 4.4237746,4.4237746 0 0 0 -0.0111,-0.31769 c 0.05,-0.1955 0.078,-0.40049 0.078,-0.61239 v -10.70881 l 7.33197,-1.30328 v 6.11179 a 4.4237746,4.4237746 0 0 0 -4.24862,4.41743 4.4237746,4.4237746 0 0 0 4.42391,4.42372 4.4237746,4.4237746 0 0 0 4.42383,-4.42372 4.4237746,4.4237746 0 0 0 -0.0111,-0.3179 c 0.05,-0.19529 0.078,-0.40049 0.078,-0.61239 V 150.1289 c 0.073,-0.30069 0.087,-0.62069 0.029,-0.94468 -0.1977,-1.11308 -1.1647,-1.89357 -2.27616,-1.91617 z" />
    <g
       id="g6362"
       transform="matrix(0.42303607,0,0,0.42303607,-440.66718,-55.684054)">
      <path
         inkscape:connector-curvature="0"
         id="path6358"
         style="fill:#ffffff;paint-order:fill markers stroke"
         d="m 2010.6,477.33 c -0.3754,-0.008 -0.7581,0.0215 -1.1431,0.0899 l -28.029,4.9811 c -2.7153,0.48258 -4.6287,2.764 -4.6777,5.3578 -0.1447,0.50646 -0.2233,1.0422 -0.2233,1.5978 v 20.225 a 10.457,10.457 0 0 0 -10.043,10.442 10.457,10.457 0 0 0 10.457,10.457 10.457,10.457 0 0 0 10.458,-10.457 10.457,10.457 0 0 0 -0.028,-0.75139 c 0.1185,-0.46175 0.1829,-0.9466 0.1829,-1.4475 v -25.314 l 17.332,-3.0804 v 14.447 a 10.457,10.457 0 0 0 -10.043,10.442 10.457,10.457 0 0 0 10.457,10.457 10.457,10.457 0 0 0 10.457,-10.457 10.457,10.457 0 0 0 -0.028,-0.75139 c 0.1185,-0.46175 0.1824,-0.9466 0.1824,-1.4474 v -28.028 c 0.1734,-0.71122 0.2058,-1.4675 0.07,-2.2334 -0.4676,-2.6312 -2.7534,-4.476 -5.381,-4.5294 z" />
      <path
         inkscape:connector-curvature="0"
         id="path6360"
         style="fill:#d40000;paint-order:fill markers stroke"
         d="m 1993.4,499.51 c -2.4941,2.4942 -2.4947,6.51 -5e-4,9.0042 l 4.5023,4.5024 -4.5018,4.5018 c -2.4941,2.4942 -2.4947,6.51 -6e-4,9.0041 2.4942,2.4942 6.5107,2.4942 9.0048,3e-5 l 4.5018,-4.5018 4.5018,4.5018 c 2.4943,2.4941 6.5108,2.4942 9.0047,3e-5 2.4942,-2.4942 2.4937,-6.51 -7e-4,-9.0042 l -4.5017,-4.5018 4.5024,-4.5024 c 2.4942,-2.4941 2.4937,-6.51 -7e-4,-9.0042 -2.494,-2.4942 -6.5093,-2.4942 -9.0032,0 l -4.5026,4.5024 -4.5024,-4.5024 c -2.4942,-2.4942 -6.5093,-2.4942 -9.0036,-4e-5 z" />
    </g>
    <path
       style="fill:#ffffff;stroke-width:0.46072829"
       inkscape:connector-curvature="0"
       id="path6364"
       d="m 91.013225,93.177298 -11.92359,11.923592 h 3.97433 v 11.92369 h 4.90172 v -9.86183 h 6.09499 v 9.86183 h 4.901615 v -11.92369 h 3.97433 z" />
    <g
       style="fill:#ffffff"
       id="g6370"
       transform="matrix(0.46072827,0,0,0.46072827,-875.4562,-23.617084)">
      <rect
         id="rect6366"
         style="paint-order:fill markers stroke"
         ry="10.55142"
         rx="10.55142"
         height="49.146"
         width="15.946"
         y="-532.10999"
         x="-2116.3999"
         transform="scale(-1)" />
      <rect
         id="rect6368"
         style="paint-order:fill markers stroke"
         ry="10.55142"
         rx="10.55142"
         height="49.146"
         width="15.946"
         y="-532.10999"
         x="-2093.8"
         transform="scale(-1)" />
    </g>
    <g
       style="fill:#ffffff"
       id="g6378"
       transform="matrix(0.46072827,0,0,0.46072827,-854.1707,-22.649764)">
      <ellipse
         id="ellipse6372"
         style="paint-order:markers fill stroke"
         ry="5.7490001"
         rx="5.7479"
         cy="525.87"
         cx="2153.6001" />
      <path
         inkscape:connector-curvature="0"
         id="path6374"
         d="m 2140.9,483.29 c -2.1616,0 -3.9018,1.7406 -3.9018,3.9026 v 3.4151 c 0,2.162 1.7402,3.9026 3.9018,3.9026 h 6.1778 c 0.079,0 0.1563,-0.007 0.2343,-0.0118 0,0 3.7308,21.21 5.6866,22.779 2.2286,1.7877 25.069,1.621 26.928,0 2.4139,-2.105 9.7696,-21.853 6.732,-26.967 -2.8681,-4.8293 -35.679,0 -35.679,0 v -3.1176 c 0,-2.162 -1.7403,-3.9026 -3.9019,-3.9026 z" />
      <ellipse
         id="ellipse6376"
         style="paint-order:markers fill stroke"
         ry="5.7490001"
         rx="5.7479"
         cy="525.87"
         cx="2175.6001" />
    </g>
    <g
       style="fill:#ffffff"
       id="g6384"
       transform="matrix(0.59240441,0,0,0.59240441,-1205.2458,-131.33557)">
      <path
         inkscape:connector-curvature="0"
         id="path6380"
         style="paint-order:markers fill stroke"
         d="m 2451.9,576.46 c -8.3404,0 -15.055,5.6712 -15.055,12.716 v 3.654 h 30.11 v -3.654 c 0,-7.0448 -6.7146,-12.716 -15.055,-12.716 z" />
      <circle
         id="circle6382"
         style="paint-order:markers fill stroke"
         r="8.4775"
         cy="566.71002"
         cx="2451.8999" />
    </g>
    <g
       style="fill:#ffffff"
       id="g6404"
       transform="matrix(0.52633594,0,0,0.52633594,-1017.7752,-90.515124)">
      <g
         id="g6390"
         transform="matrix(0.79282,0,0,0.79282,544.07,113.86)">
        <path
           inkscape:connector-curvature="0"
           id="path6386"
           style="paint-order:markers fill stroke"
           d="m 2451.9,576.46 c -8.3404,0 -15.055,5.6712 -15.055,12.716 v 3.654 h 30.11 v -3.654 c 0,-7.0448 -6.7146,-12.716 -15.055,-12.716 z" />
        <circle
           id="circle6388"
           style="paint-order:markers fill stroke"
           r="8.4775"
           cy="566.71002"
           cx="2451.8999" />
      </g>
      <g
         id="g6396"
         transform="matrix(0.79282,0,0,0.79282,573.06,113.86)">
        <path
           inkscape:connector-curvature="0"
           id="path6392"
           style="paint-order:markers fill stroke"
           d="m 2451.9,576.46 c -8.3404,0 -15.055,5.6712 -15.055,12.716 v 3.654 h 30.11 v -3.654 c 0,-7.0448 -6.7146,-12.716 -15.055,-12.716 z" />
        <circle
           id="circle6394"
           style="paint-order:markers fill stroke"
           r="8.4775"
           cy="566.71002"
           cx="2451.8999" />
      </g>
      <g
         id="g6402"
         transform="translate(50.865,-3.5079)">
        <path
           inkscape:connector-curvature="0"
           id="path6398"
           style="paint-order:markers fill stroke"
           d="m 2451.9,576.46 c -8.3404,0 -15.055,5.6712 -15.055,12.716 v 3.654 h 30.11 v -3.654 c 0,-7.0448 -6.7146,-12.716 -15.055,-12.716 z" />
        <circle
           id="circle6400"
           style="paint-order:markers fill stroke"
           r="8.4775"
           cy="566.71002"
           cx="2451.8999" />
      </g>
    </g>
    <g
       style="fill:#ffffff"
       id="g6412"
       transform="matrix(0.67542759,0,0,0.67542759,-1388.8917,-175.84193)">
      <rect
         id="rect6406"
         style="paint-order:markers fill stroke"
         ry="7.5318985"
         rx="7.7253017"
         height="8.4749002"
         width="34.313"
         y="558.07001"
         x="2328.1001" />
      <rect
         id="rect6408"
         style="paint-order:markers fill stroke"
         ry="7.5318985"
         rx="7.7253017"
         height="8.4749002"
         width="34.313"
         y="567.67999"
         x="2328.1001" />
      <rect
         id="rect6410"
         style="paint-order:markers fill stroke"
         ry="7.5318985"
         rx="7.7253017"
         height="8.4749002"
         width="34.313"
         y="577.28998"
         x="2328.1001" />
    </g>
    <path
       d="m 358.28165,197.53227 a 4.4051612,4.4051612 0 0 0 -4.40513,4.40542 4.4051612,4.4051612 0 0 0 0.01,0.2228 l -7.64627,4.41482 c -0.079,0.044 -0.15369,0.091 -0.2287,0.1373 a 4.4051612,4.4051612 0 0 0 -2.53294,-0.80369 4.4051612,4.4051612 0 0 0 -4.40502,4.40503 4.4051612,4.4051612 0 0 0 4.40502,4.40512 4.4051612,4.4051612 0 0 0 1.59626,-0.3055 c 0.1248,0.081 0.2526,0.1607 0.38629,0.2379 l 8.41997,4.86161 a 4.4051612,4.4051612 0 0 0 0,0.056 4.4051612,4.4051612 0 0 0 4.4052,4.40533 4.4051612,4.4051612 0 0 0 4.40524,-4.40533 4.4051612,4.4051612 0 0 0 -4.40524,-4.40522 4.4051612,4.4051612 0 0 0 -2.38225,0.69969 l -8.11197,-4.68372 a 4.4051612,4.4051612 0 0 0 0.089,-0.75269 c 0.14819,-0.075 0.2971,-0.15319 0.44699,-0.23979 l 7.72308,-4.45902 a 4.4051612,4.4051612 0 0 0 2.23485,0.61469 4.4051612,4.4051612 0 0 0 4.40524,-4.40513 4.4051612,4.4051612 0 0 0 -4.40524,-4.40542 z"
       style="fill:#ffffff;stroke-width:0.46072829;paint-order:markers fill stroke"
       id="path6414"
       inkscape:connector-curvature="0" />
    <path
       d="m 89.492955,250.33174 c -3.25194,0 -5.8698,2.10017 -5.8698,4.70912 v 4.90352 c -0.48529,0.44919 -0.76328,0.96888 -0.76328,1.52417 v 9.73623 c 0,1.70927 2.62165,3.08524 5.87799,3.08524 h 4.341827 c 3.256243,0 5.877997,-1.37597 5.877997,-3.08524 v -9.73623 c 0,-0.55529 -0.278096,-1.07498 -0.763286,-1.52417 v -4.90352 c 0,-2.60875 -2.618055,-4.70912 -5.869697,-4.70912 z m 0.49769,2.56136 h 1.83587 c 2.108864,0 3.806332,1.36168 3.806332,3.05315 v 2.74045 c -0.771387,-0.1946 -1.63727,-0.3036 -2.553454,-0.3036 h -4.341828 c -0.91588,0 -1.78187,0.109 -2.55315,0.3036 v -2.74045 c 0,-1.69147 1.69767,-3.05315 3.80623,-3.05315 z m 0.91788,9.25824 a 2.2683495,2.2683495 0 0 1 2.268267,2.26836 2.2683495,2.2683495 0 0 1 -0.834486,1.75617 v 2.82315 c 0,0.79428 -0.639491,1.43387 -1.433781,1.43387 -0.79438,0 -1.43377,-0.63959 -1.43377,-1.43387 v -2.82365 a 2.2683495,2.2683495 0 0 1 -0.83459,-1.75567 2.2683495,2.2683495 0 0 1 2.26836,-2.26836 z"
       style="fill:#ffffff;stroke-width:0.46072829;paint-order:markers fill stroke"
       id="path6416"
       inkscape:connector-curvature="0" />
    <path
       d="m 147.82113,258.717 c -0.77139,-0.1947 -1.63747,-0.3037 -2.55366,-0.3037 h -4.34172 c -0.91589,0 -1.78187,0.109 -2.55316,0.3037 v -2.74055 c 0,-1.69137 1.69767,-3.05325 3.80634,-3.05325 h 1.83576 c 2.10887,0 3.80644,1.36188 3.80644,3.05325 l 2.56105,-0.90549 c 0,-2.60875 -2.61805,-4.70912 -5.86969,-4.70912 h -2.83146 c -3.25174,0 -5.86969,2.10017 -5.86969,4.70912 v 4.90351 c -0.48509,0.4491 -0.76329,0.96889 -0.76329,1.52418 v 9.73623 c 0,1.70918 2.62165,3.08535 5.8781,3.08535 h 4.34182 c 3.25624,0 5.878,-1.37617 5.878,-3.08535 v -9.73623 c 0,-0.55529 -0.2782,-1.07508 -0.76339,-1.52418 z m -4.72442,3.46464 c 1.25278,0 2.26826,1.01558 2.26836,2.26826 0,0.68098 -0.30689,1.32567 -0.83448,1.75607 v 2.82335 c 0,0.79428 -0.63959,1.43377 -1.43388,1.43377 -0.79429,0 -1.43377,-0.63949 -1.43377,-1.43377 v -2.82375 c -0.5276,-0.4305 -0.83379,-1.07488 -0.83449,-1.75567 1e-4,-1.25268 1.01548,-2.26826 2.26826,-2.26826 z"
       style="fill:#ffffff;stroke-width:0.46072829;paint-order:markers fill stroke"
       id="path6418"
       inkscape:connector-curvature="0" />
    <g
       style="fill:#ffffff"
       id="g6424"
       transform="matrix(0.46072827,0,0,0.46072827,-847.0754,-42.967914)">
      <path
         inkscape:connector-curvature="0"
         id="path6420"
         style="paint-order:fill markers stroke"
         d="m 2204.5,335.1 c 0,7.6221 -43.966,33.006 -50.567,29.195 -6.6009,-3.811 -6.6009,-54.579 0,-58.39 6.6009,-3.811 50.567,21.573 50.567,29.195 z"
         transform="matrix(0.52039,0,0,0.53439,1147.6,483.9)" />
      <path
         inkscape:connector-curvature="0"
         id="path6422"
         style="paint-order:fill markers stroke"
         d="m 2204.5,335.1 c 0,7.6221 -43.966,33.006 -50.567,29.195 -6.6009,-3.811 -6.6009,-54.579 0,-58.39 6.6009,-3.811 50.567,21.573 50.567,29.195 z"
         transform="matrix(-0.52039,0,0,0.53439,3377.1,483.9)" />
    </g>
    <g
       style="fill:#ffffff"
       id="g6430"
       transform="matrix(0,-0.46072827,-0.46072827,0,553.07766,1342.3037)">
      <path
         inkscape:connector-curvature="0"
         id="path6426"
         style="paint-order:fill markers stroke"
         d="m 2204.5,335.1 c 0,7.6221 -43.966,33.006 -50.567,29.195 -6.6009,-3.811 -6.6009,-54.579 0,-58.39 6.6009,-3.811 50.567,21.573 50.567,29.195 z"
         transform="matrix(0.52039,0,0,-0.53439,1229.2,842.63)" />
      <path
         inkscape:connector-curvature="0"
         id="path6428"
         style="paint-order:fill markers stroke"
         d="m 2204.5,335.1 c 0,7.6221 -43.966,33.006 -50.567,29.195 -6.6009,-3.811 -6.6009,-54.579 0,-58.39 6.6009,-3.811 50.567,21.573 50.567,29.195 z"
         transform="matrix(-0.52039,0,0,-0.53439,3458.7,842.63)" />
    </g>
    <g
       style="fill:#ffffff"
       id="g6456"
       transform="matrix(0.44090312,0,0,0.44090312,-766.67829,-26.704244)">
      <g
         id="g6438"
         transform="translate(-1.754,8.146e-6)">
        <rect
           id="rect6432"
           style="paint-order:markers fill stroke"
           ry="10.214135"
           rx="11.060811"
           height="15.493"
           width="15.493"
           y="627.90997"
           x="2395" />
        <rect
           id="rect6434"
           style="paint-order:markers fill stroke"
           ry="10.214135"
           rx="11.060811"
           height="15.493"
           width="15.493"
           y="627.90997"
           x="2412.3" />
        <rect
           id="rect6436"
           style="paint-order:markers fill stroke"
           ry="10.214135"
           rx="11.060811"
           height="15.493"
           width="15.493"
           y="627.90997"
           x="2429.5" />
      </g>
      <g
         id="g6446"
         transform="translate(-1.754,0.58464)">
        <rect
           id="rect6440"
           style="paint-order:markers fill stroke"
           ry="10.214135"
           rx="11.060811"
           height="15.493"
           width="15.493"
           y="646.33002"
           x="2395" />
        <rect
           id="rect6442"
           style="paint-order:markers fill stroke"
           ry="10.214135"
           rx="11.060811"
           height="15.493"
           width="15.493"
           y="646.33002"
           x="2412.3" />
        <rect
           id="rect6444"
           style="paint-order:markers fill stroke"
           ry="10.214135"
           rx="11.060811"
           height="15.493"
           width="15.493"
           y="646.33002"
           x="2429.5" />
      </g>
      <g
         id="g6454"
         transform="translate(-1.754,19.586)">
        <rect
           id="rect6448"
           style="paint-order:markers fill stroke"
           ry="10.214135"
           rx="11.060811"
           height="15.493"
           width="15.493"
           y="646.33002"
           x="2395" />
        <rect
           id="rect6450"
           style="paint-order:markers fill stroke"
           ry="10.214135"
           rx="11.060811"
           height="15.493"
           width="15.493"
           y="646.33002"
           x="2412.3" />
        <rect
           id="rect6452"
           style="paint-order:markers fill stroke"
           ry="10.214135"
           rx="11.060811"
           height="15.493"
           width="15.493"
           y="646.33002"
           x="2429.5" />
      </g>
    </g>
    <path
       d="m 343.6766,250.79254 c -2.18427,0 -3.94275,1.76507 -3.94275,3.95763 v 16.00672 c 0,2.19225 1.75848,3.95752 3.94275,3.95752 h 16.0361 c 2.18437,0 3.94295,-1.76527 3.94295,-3.95752 v -16.00672 c 0,-2.19256 -1.75858,-3.95763 -3.94295,-3.95763 z m -0.42479,3.03414 a 2.1107343,2.1107343 0 0 1 2.11084,2.11077 2.1107343,2.1107343 0 0 1 -2.11084,2.11066 2.1107343,2.1107343 0 0 1 -2.11077,-2.11066 2.1107343,2.1107343 0 0 1 2.11077,-2.11077 z m 16.66089,0 a 2.1107343,2.1107343 0 0 1 2.11076,2.11077 2.1107343,2.1107343 0 0 1 -2.11076,2.11066 2.1107343,2.1107343 0 0 1 -2.11074,-2.11066 2.1107343,2.1107343 0 0 1 2.11074,-2.11077 z m -11.88038,3.66784 c 1.77806,-0.058 8.46866,3.98843 8.46866,5.25881 0,1.35507 -7.61217,5.86829 -8.75486,5.1907 -1.14268,-0.67778 -1.14268,-9.70393 0,-10.38121 0.071,-0.043 0.16809,-0.064 0.2866,-0.069 z m -4.78051,3.14824 a 2.1107343,2.1107343 0 0 1 2.11084,2.11067 2.1107343,2.1107343 0 0 1 -2.11084,2.11076 2.1107343,2.1107343 0 0 1 -2.11077,-2.11076 2.1107343,2.1107343 0 0 1 2.11077,-2.11067 z m 16.66089,0 a 2.1107343,2.1107343 0 0 1 2.11076,2.11067 2.1107343,2.1107343 0 0 1 -2.11076,2.11076 2.1107343,2.1107343 0 0 1 -2.11074,-2.11076 2.1107343,2.1107343 0 0 1 2.11074,-2.11067 z m -16.66089,6.81578 a 2.1107343,2.1107343 0 0 1 2.11084,2.11097 2.1107343,2.1107343 0 0 1 -2.11084,2.11066 2.1107343,2.1107343 0 0 1 -2.11077,-2.11066 2.1107343,2.1107343 0 0 1 2.11077,-2.11097 z m 16.66089,0 a 2.1107343,2.1107343 0 0 1 2.11076,2.11097 2.1107343,2.1107343 0 0 1 -2.11076,2.11066 2.1107343,2.1107343 0 0 1 -2.11074,-2.11066 2.1107343,2.1107343 0 0 1 2.11074,-2.11097 z"
       style="fill:#ffffff;stroke-width:0.46072829;paint-order:markers fill stroke"
       id="path6458"
       inkscape:connector-curvature="0" />
    <path
       d="m 394.7253,251.06893 c -0.11721,0.44179 -0.17941,0.89868 -0.17941,1.36698 v 0.27299 l -0.90837,0.1453 c -1.73717,0.2779 -2.92944,1.79297 -2.67295,3.39714 l 0.41108,2.57146 c 0.25659,1.60427 1.86177,2.67235 3.59923,2.39475 l 1.15668,-0.18489 c 1.22209,1.35237 3.06727,2.36026 5.23161,2.80405 v 5.23081 h -1.98665 v 2.55215 h -2.99305 v 3.41195 h 14.76635 v -3.41195 h -2.99294 v -2.55215 h -1.61648 v -5.27681 c 2.06005,-0.46259 3.81604,-1.44008 4.9974,-2.73675 l 1.02058,0.16319 c 1.73728,0.2779 3.34245,-0.79038 3.59883,-2.39466 l 0.41119,-2.57135 c 0.25641,-1.60437 -0.93567,-3.11935 -2.67303,-3.39724 l -0.7511,-0.1201 v -0.29829 c 0,-0.4683 -0.062,-0.92519 -0.17939,-1.36688 z m -0.17941,3.07175 v 3.00085 c 0,0.92248 0.24051,1.80096 0.67371,2.60475 l -0.11912,0.02 c -1.15736,0.185 -2.22644,-0.52639 -2.39725,-1.59527 l -0.27398,-1.71287 c -0.1709,-1.06878 0.62328,-2.07786 1.78065,-2.26286 z m 18.5982,0.026 0.17899,0.028 c 1.15718,0.185 1.95135,1.19428 1.78056,2.26296 l -0.274,1.71307 c -0.1696,1.06049 -1.22367,1.76817 -2.37085,1.59808 0.4408,-0.80989 0.6853,-1.69617 0.6853,-2.62716 z"
       style="fill:#ffffff;stroke-width:0.46072829;paint-order:markers fill stroke"
       id="path6460"
       inkscape:connector-curvature="0" />
    <text
       x="195.15991"
       y="170.54396"
       font-size="63.26px"
       letter-spacing="0px"
       text-align="center"
       word-spacing="0px"
       style="font-size:29.14566803px;line-height:1.25;font-family:'TR Kabel Bd';text-align:center;letter-spacing:0px;word-spacing:0px;text-anchor:middle;fill:#ffffff;stroke-width:1.82158124;stroke-linecap:square;stroke-linejoin:round;paint-order:fill markers stroke"
       xml:space="preserve"
       id="text6464"><tspan
         x="195.15991"
         y="170.54396"
         style="font-family:'TR Kabel Bd';fill:#ffffff;stroke-width:1.82158124;stroke-linecap:square;stroke-linejoin:round;paint-order:fill markers stroke"
         id="tspan6462">?</tspan></text>
    <text
       x="247.39531"
       y="170.69435"
       font-size="64.443px"
       letter-spacing="0px"
       text-align="center"
       word-spacing="0px"
       style="font-size:29.69071007px;line-height:1.25;font-family:'TR Kabel Bd';text-align:center;letter-spacing:0px;word-spacing:0px;text-anchor:middle;fill:#ffffff;stroke-width:1.85567522;stroke-linecap:square;stroke-linejoin:round;paint-order:fill markers stroke"
       xml:space="preserve"
       id="text6468"><tspan
         x="247.39531"
         y="170.69435"
         style="font-family:'TR Kabel Bd';fill:#ffffff;stroke-width:1.85567522;stroke-linecap:square;stroke-linejoin:round;paint-order:fill markers stroke"
         id="tspan6466">!</tspan></text>
    <path
       style="fill:none;stroke:#ffffff;stroke-width:5.80563593"
       inkscape:connector-curvature="0"
       id="path6470"
       d="m 286.63849,155.37561 9.83382,11.1552 14.97084,-17.31979" />
    <path
       inkscape:connector-curvature="0"
       id="path6472"
       style="fill:#ffffff;stroke:#ffffff;stroke-width:3.1191628;stroke-linecap:round;stroke-linejoin:round;stroke-dashoffset:91.59799957;paint-order:markers fill stroke"
       d="m 403.65573,197.98246 c 2.17459,0 1.93077,6.19839 3.68975,7.47617 1.75916,1.27778 7.57878,-0.86938 8.25066,1.19888 0.67188,2.06816 -5.29831,3.75133 -5.9704,5.8196 -0.67189,2.06816 3.16875,6.93898 1.40927,8.21725 -1.75916,1.27818 -5.20491,-3.87973 -7.37946,-3.87963 -2.17456,2e-4 -5.62041,5.15781 -7.37939,3.87963 -1.75927,-1.27838 2.08137,-6.14919 1.40928,-8.21715 -0.67199,-2.06827 -6.64218,-3.75114 -5.9703,-5.8195 0.67191,-2.06816 6.4916,0.079 8.25047,-1.19878 1.75938,-1.27808 1.51538,-7.47647 3.68965,-7.47647 z" />
  </g>
</svg>
